Coordinates
version=1
nRows=6
nColumns=36
inDegrees=yes

Units are S.I. units (second, meters, Newtons, ...)
If the header above contains a line with 'inDegrees', this indicates whether rotational values are in degrees (yes) or radians (no).

endheader
time	pelvis_tilt	pelvis_list	pelvis_rotation	pelvis_tx	pelvis_ty	pelvis_tz	hip_flexion_r	hip_adduction_r	hip_rotation_r	knee_angle_r	knee_angle_r_beta	ankle_angle_r	subtalar_angle_r	mtp_angle_r	hip_flexion_l	hip_adduction_l	hip_rotation_l	knee_angle_l	knee_angle_l_beta	ankle_angle_l	subtalar_angle_l	mtp_angle_l	lumbar_extension	lumbar_bending	lumbar_rotation	arm_flex_r	arm_add_r	arm_rot_r	elbow_flex_r	pro_sup_r	arm_flex_l	arm_add_l	arm_rot_l	elbow_flex_l	pro_sup_l
      0.00000000	     -5.19560036	      5.12502615	   -175.36029850	      0.60916518	      1.03718656	      0.84393559	     16.40088086	      5.28440380	     -2.40311445	     22.43263206	      0.39152329	     -2.90493799	     -7.61668271	     -7.73992171	     11.55302388	     -8.62643949	      4.98524294	     68.74054762	      1.19974889	     -6.40126210	    -12.66670735	     -7.73992171	    -23.93713710	      7.91887911	      0.81548810	     10.05165175	    -10.83686524	     -8.87097221	     19.55888542	     87.19192697	     17.99337275	     -9.60895822	      4.50529248	     23.53352257	     84.60868717
      0.01666670	     -5.05828446	      4.18497629	   -176.61940235	      0.60790463	      1.02962777	      0.84183375	     16.32356255	      4.73290777	     -1.23626087	     23.40468997	      0.40848890	     -3.52000469	     -5.54952642	     -7.68707741	     14.41359006	     -7.46196832	      5.50062182	     72.42684455	      1.26408690	     -5.75147676	    -11.71576686	     -7.68707741	    -23.62378168	      6.48401114	      2.81279654	      9.93314189	    -10.71360791	    -10.19126683	     20.44619585	     87.12906748	     17.61670390	     -8.79027091	      3.49650732	     23.87358393	     85.05214836
      0.03333330	     -1.65314098	      4.10329976	   -176.50490578	      0.60433762	      1.02599205	      0.84126265	     20.04701216	      4.59547374	     -1.35197449	     25.58611986	      0.44656203	     -3.63827875	     -6.05518476	     -7.65130480	     21.24076786	     -7.15397856	      6.69760603	     75.96759960	      1.32588474	     -4.88115010	     -9.64963932	     -7.65130480	    -19.63248791	      6.36688248	      2.76102412	      9.78113500	    -10.66087725	    -10.20399246	     20.89797330	     85.38729260	     15.86523026	     -8.52988718	      3.49148993	     24.03141384	     83.60358685
      0.05000000	      0.49927758	      4.07065488	   -176.69304080	      0.60152934	      1.02965673	      0.84154967	     22.16236276	      4.74968943	     -0.48817298	     27.51159377	      0.48016789	     -2.61720767	     -7.23774092	     -7.63062329	     26.16356963	     -6.97120978	      6.95161249	     77.09882729	      1.34562839	     -5.34108999	     -8.84587533	     -7.63062329	    -17.19549331	      6.48819107	      2.95860033	     10.40578701	    -10.73627703	    -10.46530247	     20.80700663	     83.90872539	     14.37095661	     -8.06286522	      3.21008878	     23.99644569	     82.29245206
      0.06666670	      1.51870319	      4.30562073	   -176.77040372	      0.59817903	      1.03582856	      0.84176309	     22.60289371	      5.17398916	      0.10057541	     28.51971975	      0.49776301	     -1.85607560	     -8.40016886	     -7.57925181	     28.95075097	     -6.90729657	      7.14453908	     75.78125203	      1.32263236	     -6.72827344	     -8.71236964	     -7.57925181	    -15.89085594	      6.82839552	      3.27982125	     11.22112586	    -11.01097118	    -10.75667312	     20.49610165	     89.09796912	     13.00494736	     -7.32254535	     -0.09961353	     23.80848013	     88.71107190
      0.08333330	      1.61232092	      4.62751965	   -176.85443697	      0.59481063	      1.04135634	      0.84046577	     21.60707346	      5.68608588	      0.15554104	     28.54896516	      0.49827344	     -1.46259186	     -9.18463518	     -7.57501225	     30.09700164	     -7.11195593	      7.09294203	     72.76897964	      1.27005829	     -8.34485512	     -8.93134024	     -7.57501225	    -15.44050052	      7.14248958	      4.14061782	     11.85730027	    -11.37518276	     -9.95833453	     20.48262851	     88.54611900	     12.07324109	     -6.85752193	     -0.42361097	     22.81057823	     88.09145493
